<?xml version="1.0" encoding="utf-8"?>
<!-- Generator: Adobe Illustrator 23.0.3, SVG Export Plug-In . SVG Version: 6.00 Build 0)  -->
<svg version="1.1" id="Слой_1" xmlns="http://www.w3.org/2000/svg" xmlns:xlink="http://www.w3.org/1999/xlink" x="0px" y="0px"
	 viewBox="0 0 512 512" style="enable-background:new 0 0 512 512;" xml:space="preserve">
<style type="text/css">
	.st0{fill:#F79524;}
</style>
<circle class="st0" cx="256" cy="256" r="256"/>
<g>
	<g>
		<path d="M412.65,338.4c-8.73-11.43-16.12-22.67-26.37-31.77c-19.95-17.72-43.52-28.69-68.41-37.23
			C255.56,248,201.6,213.81,157.7,164.43c-21.38-24.05-40.12-49.83-47.92-81.9c-1.52-6.24-3.14-12.5-2.85-19.54
			c1.04,0.76,2.1,1.12,2.32,1.76c11.1,32.19,32.51,56.97,57.41,79.04c41.73,36.99,86.49,69.53,137.27,93.35
			c22.48,10.55,44.74,21.68,64.82,36.58c20.53,15.22,35.99,34.14,43.27,59.05C412.54,334.56,412.45,336.52,412.65,338.4z"/>
		<path d="M120.46,187.12c32.74,30.16,68.21,53.9,107.67,71.71c30.76,13.89,63.26,21.93,95.83,29.89
			c14.13,3.45,27.75,8.36,40.52,15.49c14.78,8.25,26.1,19.92,34.38,34.55c2.5,4.41,5.3,8.94,3.96,14.56
			c-0.81-0.19-1.74-0.14-1.93-0.48c-17.15-32.37-48.56-40.08-80.61-46.45c-31.59-6.28-63.53-11-93.05-25.15
			c-40.68-19.49-74.6-47.06-101.48-83.26C123.65,195.14,120.57,192.54,120.46,187.12z"/>
		<path d="M137.44,249.22c6.79,6.33,12.1,11.37,17.51,16.3c30.52,27.81,67.56,40.53,107.52,46.69c26.12,4.03,52.52,6.51,78.13,13.51
			c13.14,3.59,25.8,8.27,36.66,16.85c6.34,5.01,11.57,10.86,14.14,19c-22.68-22.93-52.22-24.2-81.27-26
			c-29.38-1.82-58.62-3.86-86.65-13.79c-33.58-11.9-61.16-31.59-80.31-62.14C141.39,256.79,139.92,253.75,137.44,249.22z"/>
		<path d="M198.97,350.08c44.1,1.19,87.68-3.64,131.11,0.74c15.25,1.54,29.75,5.67,42.85,13.88c3.45,2.17,7.22,4.2,9.57,8.99
			c-22.28-6.81-44.08-3.42-65.69-2.18c-37.52,2.15-74.14-0.44-108.75-16.69C204.97,353.38,202,351.67,198.97,350.08z"/>
		<path d="M261.79,399.95c7.18,0,12.8,0.34,18.37-0.06c18.91-1.37,36.32-8.36,53.87-14.78c9.77-3.58,19.6-6.69,30.14-3.33
			c4.22,1.34,8.56,2.49,12.41,8.21c-19.02-3.74-33.19,5.43-48.03,12.71c-16.46,8.08-33.78,10.54-51.73,6.18
			C271.73,407.64,266.39,406.27,261.79,399.95z"/>
	</g>
</g>
</svg>
